# xmcd
#
# Track frame offsets:
#	150
#	17453
#	34779
#	55257
#	75117
#	94659
#	114931
#	134203
#	150329
#	171819
#	187351
#
# Disc length: 3329 seconds
#
# Revision: 0
# Processed by: cddbd v1.5.2PL0 Copyright (c) Steve Scherf et al.
# Submitted via: dBpowerAMP V4.0
#
DISCID=810cff0b
DTITLE=Bart Crow - finally...
DYEAR=2006
DGENRE=Country
TTITLE0=nothing's wrong
TTITLE1=wear my ring
TTITLE2=driftin in the wind
TTITLE3=all i need
TTITLE4=rodeo gypsy
TTITLE5=walk on by
TTITLE6=burnout
TTITLE7=quarters
TTITLE8=dog house roses
TTITLE9=lay it on the line
TTITLE10=outlaw
EXTD=
EXTT0=
EXTT1=
EXTT2=
EXTT3=
EXTT4=
EXTT5=
EXTT6=
EXTT7=
EXTT8=
EXTT9=
EXTT10=
PLAYORDER=
